<?xml version="1.0" encoding="UTF-8" standalone="no"?>
<svg
   xmlns:dc="http://purl.org/dc/elements/1.1/"
   xmlns:cc="http://creativecommons.org/ns#"
   xmlns:rdf="http://www.w3.org/1999/02/22-rdf-syntax-ns#"
   xmlns:svg="http://www.w3.org/2000/svg"
   xmlns="http://www.w3.org/2000/svg"
   xmlns:sodipodi="http://sodipodi.sourceforge.net/DTD/sodipodi-0.dtd"
   xmlns:inkscape="http://www.inkscape.org/namespaces/inkscape"
   width="8.5in"
   height="5.5in"
   viewBox="0 0 215.9 139.7"
   version="1.1"
   id="svg8"
   inkscape:version="1.0.2 (e86c870, 2021-01-15)"
   sodipodi:docname="faceplate-v2-lines-only.svg">
  <defs
     id="defs2">
    <rect
       x="10.953466"
       y="6.3681341"
       width="54.692398"
       height="23.592944"
       id="rect889" />
  </defs>
  <sodipodi:namedview
     id="base"
     pagecolor="#8b0000"
     bordercolor="#666666"
     borderopacity="1.0"
     inkscape:pageopacity="0"
     inkscape:pageshadow="2"
     inkscape:zoom="0.98994949"
     inkscape:cx="333.03216"
     inkscape:cy="182.62168"
     inkscape:document-units="mm"
     inkscape:current-layer="layer1"
     inkscape:document-rotation="0"
     showgrid="false"
     inkscape:window-width="1872"
     inkscape:window-height="1136"
     inkscape:window-x="1968"
     inkscape:window-y="27"
     inkscape:window-maximized="1"
     units="in"
     inkscape:snap-global="true" />
  <metadata
     id="metadata5">
    <rdf:RDF>
      <cc:Work
         rdf:about="">
        <dc:format>image/svg+xml</dc:format>
        <dc:type
           rdf:resource="http://purl.org/dc/dcmitype/StillImage" />
        <dc:title></dc:title>
      </cc:Work>
    </rdf:RDF>
  </metadata>
  <g
     inkscape:label="Layer 1"
     inkscape:groupmode="layer"
     id="layer1">
    <path
       id="path6112"
       style="fill:none;fill-rule:evenodd;stroke:#000000;stroke-width:0.643001;stroke-linecap:round;stroke-linejoin:round;stroke-miterlimit:4;stroke-dasharray:none;stroke-opacity:1"
       d="M 22.8558 26.35 L 44.5 26.35 C 46.993 26.35 49 28.357 49 30.85 L 49 71.85 C 49 74.343 46.993 76.35 44.5 76.35 L 9.5 76.35 C 7.007 76.35 5 74.343 5 71.85 L 5 30.85 C 5 28.4156 6.91375 26.4446 9.32502 26.3533" />
    <path
       id="path6137"
       style="fill:none;fill-rule:evenodd;stroke:#000000;stroke-width:0.643356;stroke-linecap:round;stroke-linejoin:round;stroke-miterlimit:4;stroke-dasharray:none;stroke-opacity:1"
       d="M 28.3097 84.7 L 44.5 84.7 C 46.993 84.7 49 86.707 49 89.2 L 49 130.2 C 49 132.693 46.993 134.7 44.5 134.7 L 9.5 134.7 C 7.007 134.7 5 132.693 5 130.2 L 5 89.2 C 5 86.8649 6.76075 84.9563 9.03241 84.7238" />
    <path
       id="path6140"
       style="fill:none;fill-rule:evenodd;stroke:#000000;stroke-width:0.643356;stroke-linecap:round;stroke-linejoin:round;stroke-miterlimit:4;stroke-dasharray:none;stroke-opacity:1"
       d="M 81.7919 84.7 L 98.4667 84.7 C 100.96 84.7 102.967 86.707 102.967 89.2 L 102.967 130.2 C 102.967 132.693 100.96 134.7 98.4667 134.7 L 63.4667 134.7 C 60.9737 134.7 58.9667 132.693 58.9667 130.2 L 58.9667 89.2 C 58.9667 86.7277 60.9404 84.7334 63.4046 84.7004" />
    <path
       id="6ee233b7-1ee0-411f-867e-3e95afe59d60"
       style="fill:none;fill-rule:evenodd;stroke:#000000;stroke-width:0.643356;stroke-linecap:round;stroke-linejoin:round;stroke-miterlimit:4;stroke-dasharray:none;stroke-opacity:1"
       d="M 130.291 84.7 L 130.433 84.7 C 132.926 84.7 134.933 86.707 134.933 89.2 L 134.933 130.2 C 134.933 132.693 132.926 134.7 130.433 134.7 L 117.433 134.7 C 114.94 134.7 112.933 132.693 112.933 130.2 L 112.933 89.2 C 112.933 86.707 114.94 84.7 117.433 84.7 L 117.433 84.7 L 117.479 84.7" />
    <path
       id="669c4ea7-2c7d-4f52-918e-a4771e616bd0"
       style="fill:none;fill-rule:evenodd;stroke:#000000;stroke-width:0.643356;stroke-linecap:round;stroke-linejoin:round;stroke-miterlimit:4;stroke-dasharray:none;stroke-opacity:1"
       d="M 77.349 8 L 120.467 8 C 122.96 8 124.967 10.007 124.967 12.5 L 124.967 28.5 C 124.967 30.993 122.96 33 120.467 33 L 63.4667 33 C 60.9737 33 58.9667 30.993 58.9667 28.5 L 58.9667 12.5 C 58.9667 10.007 60.9737 8 63.4667 8 L 63.4667 8 L 63.7075 8" />
    <path
       id="path6146"
       style="fill:none;fill-rule:evenodd;stroke:#000000;stroke-width:0.643356;stroke-linecap:round;stroke-linejoin:round;stroke-miterlimit:4;stroke-dasharray:none;stroke-opacity:1"
       d="M 76.8131 46.35 L 120.467 46.35 C 122.96 46.35 124.967 48.357 124.967 50.85 L 124.967 66.85 C 124.967 69.343 122.96 71.35 120.467 71.35 L 63.4667 71.35 C 60.9737 71.35 58.9667 69.343 58.9667 66.85 L 58.9667 50.85 C 58.9667 48.4631 60.8064 46.5217 63.1511 46.3608" />
    <path
       id="08cca071-3d20-413f-a0b8-ec87cdd09603"
       style="fill:none;fill-rule:evenodd;stroke:#000000;stroke-width:0.643356;stroke-linecap:round;stroke-linejoin:round;stroke-miterlimit:4;stroke-dasharray:none;stroke-opacity:1"
       d="M 149.232 8 L 174.433 8 C 176.926 8 178.933 10.007 178.933 12.5 L 178.933 78.5 C 178.933 80.993 176.926 83 174.433 83 L 169.259 83" />
    <path
       id="path6155"
       style="fill:none;fill-rule:evenodd;stroke:#000000;stroke-width:0.643356;stroke-linecap:round;stroke-linejoin:round;stroke-miterlimit:4;stroke-dasharray:none;stroke-opacity:1"
       d="M 134.933 48.6166 L 134.933 12.5 C 134.933 10.007 136.94 8 139.433 8 L 139.433 8 L 139.443 8" />
    <path
       id="c23b6131-8242-4c3c-a67e-56857898bdce"
       style="fill:none;fill-rule:evenodd;stroke:#000000;stroke-width:0.643356;stroke-linecap:round;stroke-linejoin:round;stroke-miterlimit:4;stroke-dasharray:none;stroke-opacity:1"
       d="M 139.392 58.0002 C 139.406 58.0001 139.42 58 139.433 58 L 139.433 58 L 152.433 58 C 154.926 58 156.933 60.007 156.933 62.5 L 156.933 77.4603" />
    <path
       id="path3304"
       style="fill:none;fill-rule:evenodd;stroke:#000000;stroke-width:0.643356;stroke-linecap:round;stroke-linejoin:round;stroke-miterlimit:4;stroke-dasharray:none;stroke-opacity:1"
       d="M 171.126 83 L 161.433 83 C 158.94 83 156.933 80.993 156.933 78.5 L 156.933 70.3904" />
    <path
       id="path3291"
       style="fill:none;fill-rule:evenodd;stroke:#000000;stroke-width:0.643356;stroke-linecap:round;stroke-linejoin:round;stroke-miterlimit:4;stroke-dasharray:none;stroke-opacity:1"
       d="M 144.032 58 L 139.433 58 C 136.94 58 134.933 55.993 134.933 53.5 L 134.933 46.8477" />
    <path
       id="path6160"
       style="fill:none;fill-rule:evenodd;stroke:#000000;stroke-width:0.643356;stroke-linecap:round;stroke-linejoin:round;stroke-miterlimit:4;stroke-dasharray:none;stroke-opacity:1"
       d="M 205.385 8 L 206.4 8 C 208.893 8 210.9 10.007 210.9 12.5 L 210.9 78.5 C 210.9 80.993 208.893 83 206.4 83 L 193.4 83 C 190.907 83 188.9 80.993 188.9 78.5 L 188.9 12.5 C 188.9 10.0382 190.857 8.05029 193.307 8.00094" />
  </g>
</svg>
